<?xml version="1.0" encoding="UTF-8" standalone="no"?>
<!-- Created with Inkscape (http://www.inkscape.org/) -->

<svg
   xmlns:dc="http://purl.org/dc/elements/1.1/"
   xmlns:cc="http://creativecommons.org/ns#"
   xmlns:rdf="http://www.w3.org/1999/02/22-rdf-syntax-ns#"
   xmlns:svg="http://www.w3.org/2000/svg"
   xmlns="http://www.w3.org/2000/svg"
   xmlns:xlink="http://www.w3.org/1999/xlink"
   xmlns:sodipodi="http://sodipodi.sourceforge.net/DTD/sodipodi-0.dtd"
   xmlns:inkscape="http://www.inkscape.org/namespaces/inkscape"
   width="140mm"
   height="140mm"
   viewBox="0 0 140 140"
   version="1.1"
   id="svg8"
   inkscape:version="0.92.4 (5da689c313, 2019-01-14)"
   sodipodi:docname="home_logo.svg">
  <defs
     id="defs2">
    <linearGradient
       inkscape:collect="always"
       id="linearGradient1001">
      <stop
         style="stop-color:#ffffff;stop-opacity:1;"
         offset="0"
         id="stop997" />
      <stop
         style="stop-color:#ffffff;stop-opacity:0;"
         offset="1"
         id="stop999" />
    </linearGradient>
    <linearGradient
       inkscape:collect="always"
       xlink:href="#linearGradient1001"
       id="linearGradient1003"
       x1="133.97374"
       y1="-95.25"
       x2="146.16745"
       y2="-95.249992"
       gradientUnits="userSpaceOnUse"
       gradientTransform="matrix(1.0283733,0,0,1.3172986,33.913012,-23.777531)" />
  </defs>
  <sodipodi:namedview
     id="base"
     pagecolor="#ffffff"
     bordercolor="#666666"
     borderopacity="1.0"
     inkscape:pageopacity="0.0"
     inkscape:pageshadow="2"
     inkscape:zoom="1.4"
     inkscape:cx="306.79445"
     inkscape:cy="253.20266"
     inkscape:document-units="mm"
     inkscape:current-layer="layer7"
     showgrid="false"
     showguides="true"
     inkscape:guide-bbox="true"
     inkscape:snap-global="false"
     inkscape:window-width="1920"
     inkscape:window-height="1017"
     inkscape:window-x="-8"
     inkscape:window-y="-8"
     inkscape:window-maximized="1" />
  <metadata
     id="metadata5">
    <rdf:RDF>
      <cc:Work
         rdf:about="">
        <dc:format>image/svg+xml</dc:format>
        <dc:type
           rdf:resource="http://purl.org/dc/dcmitype/StillImage" />
        <dc:title></dc:title>
      </cc:Work>
    </rdf:RDF>
  </metadata>
  <g
     inkscape:groupmode="layer"
     id="layer5"
     inkscape:label="Background"
     transform="translate(0,-157)" />
  <g
     inkscape:groupmode="layer"
     id="layer4"
     inkscape:label="Outer Text"
     transform="translate(0,-157)" />
  <g
     style="display:inline"
     inkscape:label="House"
     id="g1063"
     inkscape:groupmode="layer"
     transform="translate(0,-157)">
    <text
       id="text1061"
       y="123.69791"
       x="168.3884"
       style="font-style:normal;font-weight:normal;font-size:10.58333302px;line-height:1.25;font-family:sans-serif;letter-spacing:1.32291663px;word-spacing:0px;fill:#000000;fill-opacity:1;stroke:none;stroke-width:0.26458332"
       xml:space="preserve"><tspan
         style="stroke-width:0.26458332"
         y="133.06168"
         x="168.3884"
         id="tspan1059"
         sodipodi:role="line" /></text>
  </g>
  <g
     inkscape:label="Name Border"
     id="g1124"
     inkscape:groupmode="layer"
     style="display:inline"
     transform="translate(0,-157)" />
  <g
     inkscape:groupmode="layer"
     id="layer7"
     inkscape:label="Name"
     style="display:inline"
     transform="translate(0,-157)">
    <g
       id="g4912"
       transform="translate(-79.999994,79.999999)">
      <circle
         r="69.586319"
         transform="rotate(-162.51205)"
         cy="-95.129906"
         cx="-187.24129"
         id="path924-3-6-6"
         style="opacity:1;fill:#002855;fill-opacity:1;stroke:none;stroke-width:1.06576347;stroke-linecap:round;stroke-linejoin:round;stroke-miterlimit:4;stroke-dasharray:none;stroke-opacity:1" />
      <g
         transform="translate(54.000216,37.88779)"
         id="text928"
         style="font-style:normal;font-variant:normal;font-weight:normal;font-stretch:normal;font-size:16.93333244px;line-height:1.25;font-family:Sylfaen;-inkscape-font-specification:Sylfaen;letter-spacing:1.32291663px;word-spacing:0px;fill:#ffffff;fill-opacity:1;stroke:none;stroke-width:0.26458332"
         aria-label="BECOME FAMILY">
        <path
           inkscape:connector-curvature="0"
           id="path841"
           style="font-style:normal;font-variant:normal;font-weight:normal;font-stretch:normal;font-size:16.93333244px;font-family:Sylfaen;-inkscape-font-specification:Sylfaen;fill:#ffffff;fill-opacity:1;stroke-width:0.26458332"
           d="m 42.801209,135.69079 q -0.07306,0.0387 -0.03435,0.11177 l 0.243861,0.46029 q 0.646424,1.22013 1.348058,1.64375 0.934222,0.56239 1.99362,0.001 0.876744,-0.4645 1.008887,-1.29242 0.118836,-0.76473 -0.300952,-1.62773 l -0.280004,-0.5815 -0.301923,-0.56988 q -0.03871,-0.0731 -0.11177,-0.0343 z m -4.982825,2.63989 q -0.07306,0.0387 -0.03435,0.11177 l 0.499333,0.9425 q 1.424456,2.68868 3.448272,1.61646 2.389126,-1.26575 0.813709,-4.23937 l -0.348372,-0.65756 q -0.03871,-0.0731 -0.11177,-0.0343 z m 9.749364,-4.0985 q 0.979313,1.84847 0.973165,2.84356 -0.0024,0.68431 -0.276041,1.1568 -0.34499,0.58512 -1.024466,0.9451 -1.578138,0.8361 -3.19609,-0.64595 0.327033,1.16478 -0.0071,2.21198 -0.357717,1.14393 -1.380584,1.68584 -0.8256,0.4374 -1.778597,0.33409 -1.787353,-0.19461 -3.196325,-2.85406 l -2.028301,-3.82845 q -0.03871,-0.0731 0.03435,-0.11177 l 0.387228,-0.20515 q 0.08037,-0.0426 0.119077,0.0305 l 0.790418,1.20935 q 0.03871,0.0731 0.11177,0.0344 l 8.606699,-4.5598 q 0.07306,-0.0387 0.03435,-0.11177 l -0.549314,-1.33709 q -0.03871,-0.0731 0.03435,-0.11177 l 0.387228,-0.20515 q 0.07306,-0.0387 0.11177,0.0344 z" />
        <path
           inkscape:connector-curvature="0"
           id="path843"
           style="font-style:normal;font-variant:normal;font-weight:normal;font-stretch:normal;font-size:16.93333244px;font-family:Sylfaen;-inkscape-font-specification:Sylfaen;fill:#ffffff;fill-opacity:1;stroke-width:0.26458332"
           d="m 55.227405,145.55747 q 0.05066,0.0653 -0.01468,0.116 l -2.097493,1.62628 q -0.07188,0.0557 -0.12254,-0.01 l -0.385038,-0.4966 q -0.05066,-0.0653 0.0016,-0.10587 l 1.308227,-1.44328 q 0.05227,-0.0405 0.0016,-0.10588 l -2.376088,-3.06456 q -0.05066,-0.0653 -0.116005,-0.0147 l -3.306328,2.56354 q -0.06534,0.0507 -0.01468,0.11601 l 1.428693,1.84266 q 0.05573,0.0719 0.108003,0.0313 l 1.18601,-0.71032 q 0.05227,-0.0405 0.102937,0.0248 l 0.283712,0.36591 q 0.05066,0.0653 -0.01468,0.11601 l -2.907739,2.2545 q -0.06534,0.0507 -0.116005,-0.0147 l -0.283712,-0.36592 q -0.05066,-0.0653 0.0016,-0.10587 l 1.048701,-1.02236 q 0.05881,-0.0456 0.0031,-0.11747 l -1.428693,-1.84266 q -0.05066,-0.0653 -0.122539,-0.01 l -3.613438,2.80166 q -0.06534,0.0507 -0.01468,0.116 l 2.517944,3.24752 q 0.05573,0.0719 0.108003,0.0314 l 1.697526,-0.88721 q 0.05227,-0.0405 0.102936,0.0248 l 0.385038,0.4966 q 0.05066,0.0653 -0.01468,0.11601 l -2.07789,1.61108 q -0.06534,0.0507 -0.116005,-0.0147 l -5.106815,-6.58652 q -0.05066,-0.0653 0.01468,-0.11601 l 0.346315,-0.26851 q 0.07188,-0.0557 0.122539,0.01 l 0.986082,1.0559 q 0.05066,0.0653 0.116005,0.0147 l 7.723478,-5.98835 q 0.01894,-0.0565 -0.01146,-0.0957 l -0.770452,-1.22308 q -0.05066,-0.0653 0.01468,-0.11601 l 0.346315,-0.26851 q 0.06534,-0.0507 0.116005,0.0147 z" />
        <path
           inkscape:connector-curvature="0"
           id="path845"
           style="font-style:normal;font-variant:normal;font-weight:normal;font-stretch:normal;font-size:16.93333244px;font-family:Sylfaen;-inkscape-font-specification:Sylfaen;fill:#ffffff;fill-opacity:1;stroke-width:0.26458332"
           d="m 60.835075,150.49238 q 0.227526,0.2045 0.48891,0.49502 0.261384,0.29053 0.512336,0.60502 0.256479,0.30835 0.489605,0.61794 0.239276,0.31512 0.415191,0.53994 0.05659,0.0731 0.01237,0.12229 l -1.713407,1.9063 q -0.05527,0.0615 -0.122914,6.9e-4 l -0.485799,-0.43664 q -0.03075,-0.0276 -0.03814,-0.0565 -0.0074,-0.0289 0.01472,-0.0535 l 1.019114,-1.64096 q 0.03316,-0.0369 0.0061,-0.10571 -0.08858,-0.12409 -0.222072,-0.3219 -0.133492,-0.1978 -0.28481,-0.40051 -0.139641,-0.20333 -0.314312,-0.4048 -0.168522,-0.19594 -0.346853,-0.35622 -0.842462,-0.75722 -1.732581,-1.09035 -0.883971,-0.3276 -1.758462,-0.25758 -0.874491,0.07 -1.705095,0.52412 -0.825078,0.44795 -1.538076,1.24122 -0.746161,0.83016 -1.168969,1.79532 -0.422807,0.96516 -0.47625,1.9399 -0.05344,0.97475 0.293153,1.87549 0.352745,0.90626 1.133713,1.6082 0.135286,0.1216 0.343119,0.28617 0.207834,0.16457 0.420572,0.31131 0.218888,0.15227 0.442681,0.28672 0.223793,0.13444 0.425404,0.18225 0.07683,0.0135 0.109993,-0.0234 l 1.528888,-1.19389 q 0.01105,-0.0123 0.04608,-0.0142 0.03503,-0.002 0.06578,0.0258 l 0.485799,0.43664 q 0.06764,0.0608 0.01237,0.12229 l -1.70788,1.90015 q -0.03316,0.0369 -0.122914,7e-4 -0.258822,-0.13258 -0.56069,-0.30385 -0.301868,-0.17127 -0.647403,-0.3929 -0.339386,-0.21611 -0.711385,-0.49488 -0.377527,-0.27262 -0.795683,-0.64847 -0.688728,-0.61903 -1.159336,-1.31995 -0.469986,-0.68925 -0.726135,-1.43087 -0.250621,-0.74777 -0.296594,-1.50059 -0.0343,-0.75344 0.126248,-1.47629 0.166071,-0.72899 0.526359,-1.43906 0.371965,-0.71069 0.924677,-1.32562 0.635619,-0.70718 1.349458,-1.15505 0.719989,-0.44235 1.487452,-0.65304 0.773613,-0.20516 1.547371,-0.18785 0.785435,0.0167 1.546419,0.23375 0.760983,0.21706 1.485839,0.63511 0.736532,0.41743 1.376065,0.99225 z" />
        <path
           inkscape:connector-curvature="0"
           id="path847"
           style="font-style:normal;font-variant:normal;font-weight:normal;font-stretch:normal;font-size:16.93333244px;font-family:Sylfaen;-inkscape-font-specification:Sylfaen;fill:#ffffff;fill-opacity:1;stroke-width:0.26458332"
           d="m 68.439284,155.84922 q 2.208851,1.30028 2.714121,3.55498 0.497742,2.2023 -0.810924,4.4254 -1.300278,2.20886 -3.491311,2.86674 -2.25602,0.68679 -4.443495,-0.6009 -2.1946,-1.29189 -2.753943,-3.56883 -0.559342,-2.27694 0.736741,-4.47867 1.308666,-2.2231 3.553771,-2.85875 2.286189,-0.64025 4.49504,0.66003 z m -0.556897,0.55486 q -1.638824,-0.96472 -3.345687,-0.23289 -1.531608,0.66228 -2.529885,2.35811 -0.71725,1.21843 -0.91637,2.50201 -0.216353,1.42694 0.267451,2.6424 0.488,1.20834 1.628052,1.87945 1.64595,0.96891 3.316782,0.16791 1.437715,-0.69837 2.456964,-2.42983 1.140889,-1.93808 0.97172,-3.85102 -0.181701,-2.05464 -1.849027,-3.03614 z" />
        <path
           inkscape:connector-curvature="0"
           id="path849"
           style="font-style:normal;font-variant:normal;font-weight:normal;font-stretch:normal;font-size:16.93333244px;font-family:Sylfaen;-inkscape-font-specification:Sylfaen;fill:#ffffff;fill-opacity:1;stroke-width:0.26458332"
           d="m 76.365265,160.085 q 0.03704,0.0201 0.0485,0.067 l 0.815855,9.57531 6.094732,-7.43413 q 0.03048,-0.0425 0.07786,-0.0278 l 3.222309,0.9984 q 0.07898,0.0245 0.05451,0.10345 l -0.129694,0.41858 q -0.02447,0.079 -0.103449,0.0545 l -1.41582,-0.29152 q -0.08688,-0.0269 -0.111347,0.0521 l -2.882643,9.30362 q -0.02202,0.0711 0.0624,0.1059 l 1.414045,0.57662 q 0.07653,0.0324 0.05206,0.11135 l -0.129694,0.41858 q -0.02447,0.079 -0.103449,0.0545 l -4.549141,-1.40951 q -0.07898,-0.0245 -0.05451,-0.10345 l 0.129695,-0.41858 q 0.02447,-0.079 0.105896,-0.0624 l 1.563431,0.34592 q 0.08142,0.0166 0.103449,-0.0545 l 2.782314,-8.97981 -0.06318,-0.0196 -7.057574,8.64195 q -0.02558,0.0267 -0.08877,0.007 l -0.165854,-0.0514 q -0.06318,-0.0196 -0.06919,-0.0561 l -0.969273,-11.00781 -0.06318,-0.0196 -2.748055,8.86925 q -0.02447,0.079 0.05451,0.10345 l 1.303476,0.54237 q 0.08688,0.0269 0.05996,0.11379 l -0.129694,0.41858 q -0.02447,0.079 -0.111347,0.0521 l -3.704075,-1.14767 q -0.07898,-0.0245 -0.05451,-0.10345 l 0.129695,-0.41858 q 0.02447,-0.079 0.105896,-0.0624 l 1.484453,0.32145 q 0.08142,0.0166 0.103449,-0.0545 l 2.882643,-9.30362 q 0.02447,-0.079 -0.05451,-0.10345 l -1.33262,-0.56005 q -0.08688,-0.0269 -0.0624,-0.1059 l 0.129695,-0.41858 q 0.02447,-0.079 0.111346,-0.0521 z" />
        <path
           inkscape:connector-curvature="0"
           id="path851"
           style="font-style:normal;font-variant:normal;font-weight:normal;font-stretch:normal;font-size:16.93333244px;font-family:Sylfaen;-inkscape-font-specification:Sylfaen;fill:#ffffff;fill-opacity:1;stroke-width:0.26458332"
           d="m 94.981058,163.7496 q 0.08235,0.007 0.0749,0.0898 l -0.239103,2.6433 q -0.0082,0.0906 -0.09054,0.0831 l -0.62583,-0.0566 q -0.08235,-0.007 -0.07639,-0.0733 l -0.164809,-1.94097 q 0.006,-0.0659 -0.07639,-0.0733 l -3.862032,-0.34935 q -0.08235,-0.007 -0.08979,0.0749 l -0.376904,4.16671 q -0.0074,0.0823 0.0749,0.0898 l 2.322159,0.21005 q 0.09058,0.008 0.09654,-0.0577 l 0.28834,-1.35205 q 0.006,-0.0659 0.08831,-0.0584 l 0.461138,0.0417 q 0.08235,0.007 0.0749,0.0898 l -0.331467,3.6644 q -0.0074,0.0823 -0.0898,0.0749 l -0.461138,-0.0417 q -0.08235,-0.007 -0.07639,-0.0733 l -0.03359,-1.46419 q 0.0067,-0.0741 -0.08388,-0.0823 l -2.32216,-0.21005 q -0.08235,-0.007 -0.09054,0.0831 l -0.411914,4.55374 q -0.0074,0.0823 0.0749,0.0898 l 4.0926,0.3702 q 0.09058,0.008 0.09654,-0.0577 l 0.507449,-1.84695 q 0.006,-0.0659 0.08831,-0.0584 l 0.62583,0.0566 q 0.08235,0.007 0.0749,0.0898 l -0.236869,2.6186 q -0.0074,0.0824 -0.08979,0.0749 l -8.300485,-0.75083 q -0.08235,-0.007 -0.0749,-0.0898 l 0.03948,-0.43644 q 0.0082,-0.0906 0.09054,-0.0831 l 1.44474,-0.002 q 0.08235,0.007 0.0898,-0.0749 l 0.880437,-9.73331 q -0.02847,-0.0524 -0.07788,-0.0569 l -1.420159,-0.26959 q -0.08235,-0.007 -0.0749,-0.0898 l 0.03948,-0.43643 q 0.0074,-0.0823 0.08979,-0.0749 z" />
        <path
           inkscape:connector-curvature="0"
           id="path853"
           style="font-style:normal;font-variant:normal;font-weight:normal;font-stretch:normal;font-size:16.93333244px;font-family:Sylfaen;-inkscape-font-specification:Sylfaen;fill:#ffffff;fill-opacity:1;stroke-width:0.26458332"
           d="m 108.65647,162.29038 q 0.0898,-0.0144 0.1029,0.0672 l 0.42039,2.6206 q 0.0144,0.0898 -0.0754,0.1042 l -0.61229,0.0982 q -0.0898,0.0144 -0.10028,-0.0509 l -0.63038,-1.84163 q -0.0105,-0.0653 -0.10028,-0.0509 l -3.65741,0.58671 q -0.0816,0.0131 -0.0685,0.0947 l 0.70326,4.38399 q 0.0105,0.0653 0.0921,0.0522 l 2.20424,-0.3536 q 0.0816,-0.0131 0.0712,-0.0784 l -0.046,-1.38271 q -0.0105,-0.0653 0.0712,-0.0784 l 0.44901,-0.072 q 0.0898,-0.0144 0.1029,0.0672 l 0.57099,3.55944 q 0.0131,0.0816 -0.0767,0.096 l -0.44901,0.072 q -0.0816,0.0131 -0.0921,-0.0522 l -0.39146,-1.34403 q -0.0105,-0.0653 -0.0921,-0.0522 l -2.20424,0.35359 q -0.0816,0.0131 -0.0712,0.0784 l 0.6954,4.33501 q 0.0131,0.0816 0.0947,0.0685 l 1.44146,-0.0973 q 0.0816,-0.0131 0.0961,0.0767 l 0.0694,0.43268 q 0.0131,0.0816 -0.0686,0.0947 l -4.46563,0.71635 q -0.0816,0.0131 -0.0947,-0.0685 l -0.0694,-0.43269 q -0.0144,-0.0898 0.0672,-0.1029 l 1.39956,-0.35849 q 0.0816,-0.0131 0.0685,-0.0947 l -1.54795,-9.64968 q -0.0242,-0.0464 -0.0568,-0.0411 l -0.0327,0.005 -1.44278,0.0891 q -0.0816,0.0131 -0.0947,-0.0685 l -0.0694,-0.43268 q -0.0131,-0.0816 0.0522,-0.0921 z" />
        <path
           inkscape:connector-curvature="0"
           id="path855"
           style="font-style:normal;font-variant:normal;font-weight:normal;font-stretch:normal;font-size:16.93333244px;font-family:Sylfaen;-inkscape-font-specification:Sylfaen;fill:#ffffff;fill-opacity:1;stroke-width:0.26458332"
           d="m 114.63732,162.75277 q -0.0477,-0.0358 -0.0789,-0.0248 -0.0468,0.0165 -0.0459,0.0688 l -0.15734,4.35153 q -0.008,0.12567 0.10868,0.0844 l 2.88506,-1.01756 q 0.12476,-0.044 0.0473,-0.13942 z m 4.58235,8.04551 q -0.078,0.0275 -0.10547,-0.0505 l -0.14576,-0.41326 q -0.0302,-0.0858 0.0477,-0.11328 l 1.20359,-0.56478 q 0.0468,-0.0165 0.0514,-0.0532 0.005,-0.0367 -0.0275,-0.078 l -2.29077,-2.71655 q -0.0477,-0.0358 -0.0789,-0.0248 l -3.47767,1.22656 q -0.0362,0.0216 -0.0459,0.0688 l -0.14662,3.61129 q -0.003,0.11512 0.11647,0.0817 l 1.23381,-0.32995 q 0.0807,-0.0197 0.10823,0.0583 l 0.14576,0.41326 q 0.0275,0.078 -0.0505,0.10548 l -3.45427,1.21832 q -0.078,0.0275 -0.10547,-0.0505 l -0.14576,-0.41326 q -0.0302,-0.0858 0.0477,-0.11328 l 1.26597,-0.58678 q 0.0362,-0.0215 0.0459,-0.0688 l 0.45703,-11.65529 q 0.0147,-0.0578 0.0459,-0.0688 l 0.39767,-0.14026 q 0.0417,-0.006 0.0789,0.0248 l 7.33492,8.88955 q 0.0321,0.0413 0.0867,0.022 l 1.32049,-0.30792 q 0.0702,-0.0248 0.10043,0.061 l 0.14575,0.41327 q 0.0275,0.078 -0.0583,0.10823 z" />
        <path
           inkscape:connector-curvature="0"
           id="path857"
           style="font-style:normal;font-variant:normal;font-weight:normal;font-stretch:normal;font-size:16.93333244px;font-family:Sylfaen;-inkscape-font-specification:Sylfaen;fill:#ffffff;fill-opacity:1;stroke-width:0.26458332"
           d="m 122.16816,157.07313 q 0.0394,-0.0151 0.0824,0.007 l 7.81507,5.59258 -1.70165,-9.46131 q -0.0126,-0.0508 0.0294,-0.0773 l 2.8506,-1.80394 q 0.0699,-0.0442 0.11408,0.0257 l 0.23434,0.3703 q 0.0442,0.0699 -0.0257,0.11408 l -1.14053,0.8881 q -0.0768,0.0486 -0.0326,0.1185 l 5.20841,8.2304 q 0.0398,0.0629 0.12107,0.0212 l 1.35631,-0.70175 q 0.0743,-0.0372 0.1185,0.0326 l 0.23433,0.3703 q 0.0442,0.0699 -0.0257,0.11408 l -4.02437,2.54673 q -0.0699,0.0442 -0.11408,-0.0257 l -0.23434,-0.3703 q -0.0442,-0.0699 0.0212,-0.12107 l 1.27771,-0.96512 q 0.0654,-0.0512 0.0256,-0.11408 l -5.02714,-7.94394 -0.0559,0.0354 1.99588,10.97766 q 0.004,0.0368 -0.0522,0.0722 l -0.14672,0.0928 q -0.0559,0.0354 -0.0875,0.0163 l -9.00458,-6.40539 -0.0559,0.0354 4.96523,7.84613 q 0.0442,0.0699 0.11409,0.0257 l 1.25849,-0.63986 q 0.0769,-0.0486 0.12549,0.0282 l 0.23433,0.3703 q 0.0442,0.0699 -0.0326,0.1185 l -3.27679,2.07364 q -0.0699,0.0442 -0.11408,-0.0257 l -0.23433,-0.3703 q -0.0442,-0.0699 0.0212,-0.12107 l 1.20783,-0.9209 q 0.0654,-0.0512 0.0257,-0.11408 l -5.20842,-8.23041 q -0.0442,-0.0699 -0.11408,-0.0257 l -1.29086,0.65055 q -0.0768,0.0486 -0.12107,-0.0212 l -0.23433,-0.3703 q -0.0442,-0.0699 0.0326,-0.1185 z" />
        <path
           inkscape:connector-curvature="0"
           id="path859"
           style="font-style:normal;font-variant:normal;font-weight:normal;font-stretch:normal;font-size:16.93333244px;font-family:Sylfaen;-inkscape-font-specification:Sylfaen;fill:#ffffff;fill-opacity:1;stroke-width:0.26458332"
           d="m 134.75774,147.55957 q 0.0607,-0.0561 0.11684,0.005 l 0.29752,0.32173 q 0.0561,0.0607 -0.005,0.11684 l -0.96083,1.07997 q -0.0607,0.0561 -0.005,0.11684 l 6.61284,7.15104 q 0.0561,0.0607 0.11685,0.005 l 1.14608,-0.87964 q 0.0607,-0.0561 0.12245,0.0106 l 0.29753,0.32173 q 0.0561,0.0607 -0.005,0.11684 l -3.34484,3.09311 q -0.0607,0.0561 -0.11685,-0.005 l -0.29752,-0.32174 q -0.0618,-0.0668 -0.001,-0.12291 l 0.96645,-1.0739 q 0.0607,-0.0561 0.005,-0.11684 l -6.61284,-7.15104 q -0.0561,-0.0607 -0.11684,-0.005 l -1.1517,0.87357 q -0.0607,0.0561 -0.11684,-0.005 l -0.29752,-0.32174 q -0.0561,-0.0607 0.005,-0.11684 z" />
        <path
           inkscape:connector-curvature="0"
           id="path861"
           style="font-style:normal;font-variant:normal;font-weight:normal;font-stretch:normal;font-size:16.93333244px;font-family:Sylfaen;-inkscape-font-specification:Sylfaen;fill:#ffffff;fill-opacity:1;stroke-width:0.26458332"
           d="m 135.68707,146.86895 q -0.0639,-0.0525 -0.0114,-0.11637 l 2.91179,-3.54672 q 0.0525,-0.0639 0.11637,-0.0114 l 0.3387,0.27807 q 0.0639,0.0525 0.0114,0.11637 l -0.85672,1.26503 q -0.0525,0.0639 0.0114,0.11637 l 7.50242,6.15935 q 0.0639,0.0525 0.11637,-0.0114 l 2.49207,-3.03547 q 0.0525,-0.0639 0.001,-0.10588 l -1.24193,-1.4582 q -0.0511,-0.042 0.001,-0.10588 l 0.39873,-0.48568 q 0.0525,-0.0639 0.11637,-0.0114 l 2.03218,1.66838 q 0.0639,0.0525 0.0114,0.11637 l -5.15728,6.28184 q -0.0525,0.0639 -0.11637,0.0114 l -0.3387,-0.27806 q -0.0703,-0.0577 -0.0178,-0.12162 l 0.80015,-1.18311 q 0.0525,-0.0639 -0.0114,-0.11636 l -7.52798,-6.18034 q -0.0639,-0.0525 -0.11637,0.0114 l -1.01103,1.00997 q -0.0525,0.0639 -0.11637,0.0114 z" />
        <path
           inkscape:connector-curvature="0"
           id="path863"
           style="font-style:normal;font-variant:normal;font-weight:normal;font-stretch:normal;font-size:16.93333244px;font-family:Sylfaen;-inkscape-font-specification:Sylfaen;fill:#ffffff;fill-opacity:1;stroke-width:0.26458332"
           d="m 145.98386,133.23237 q -0.006,-0.0225 -0.028,-0.0346 -0.0794,-0.0444 -0.12378,0.035 l -0.66279,0.96509 q -0.0403,0.0722 -0.11252,0.0318 l -0.38248,-0.21387 q -0.0722,-0.0404 -0.0318,-0.11252 l 1.71097,-3.05985 q 0.0403,-0.0722 0.11252,-0.0318 l 0.38248,0.21388 q 0.0722,0.0403 0.0318,0.11252 l -0.51319,1.17189 q -0.013,0.0401 -0.003,0.0739 l 3.39484,5.75382 q 0.0136,0.0265 0.0641,0.0548 l 3.44955,1.92887 q 0.0722,0.0403 0.11252,-0.0318 l 0.81761,-1.19113 q 0.0403,-0.0722 0.11974,-0.0278 l 0.38248,0.21387 q 0.0722,0.0403 0.0318,0.11252 l -2.20731,3.9475 q -0.0403,0.0722 -0.11252,0.0318 l -0.38248,-0.21387 q -0.0794,-0.0444 -0.039,-0.11656 l 0.58668,-1.32026 q 0.0404,-0.0722 -0.0318,-0.11252 l -3.37017,-1.88449 q -0.0577,-0.0323 -0.10189,-0.038 l -6.6906,0.0386 q -0.045,0.0127 -0.0611,0.0416 l -0.82482,1.1871 q -0.0444,0.0794 -0.11656,0.039 l -0.38248,-0.21387 q -0.0722,-0.0404 -0.0278,-0.11974 l 2.19521,-3.92585 q 0.0444,-0.0794 0.11655,-0.039 l 0.38249,0.21387 q 0.0722,0.0404 0.0278,0.11973 l -0.49937,1.11331 q -0.0242,0.0433 0.011,0.0819 0.0352,0.0386 0.0722,0.0404 l 5.61027,0.0299 z" />
      </g>
      <g
         transform="translate(54.000216,37.88779)"
         id="text952"
         style="font-style:normal;font-variant:normal;font-weight:normal;font-stretch:normal;font-size:16.93333244px;line-height:1.25;font-family:Sylfaen;-inkscape-font-specification:Sylfaen;letter-spacing:0px;word-spacing:0px;fill:#ffffff;fill-opacity:1;stroke:none;stroke-width:0.26458332"
         aria-label="WHERE FRIENDS">
        <path
           inkscape:connector-curvature="0"
           id="path866"
           style="font-style:normal;font-variant:normal;font-weight:normal;font-stretch:normal;font-size:16.93333244px;font-family:Sylfaen;-inkscape-font-specification:Sylfaen;letter-spacing:0px;fill:#ffffff;fill-opacity:1;stroke-width:0.26458332"
           d="m 35.2839,83.229776 q 0.03712,-0.07388 0.111001,-0.03676 l 0.391575,0.196728 q 0.07388,0.03712 0.03676,0.111001 l -0.453449,1.215663 q -0.02227,0.04433 -1.42e-4,0.07395 0.02213,0.02962 0.07388,0.03712 l 8.861326,1.037566 -4.317494,-4.574911 -2.650575,-0.341576 q -0.05918,0.0073 -0.07402,0.03683 l -0.763967,1.170695 q -0.0297,0.05911 -0.103577,0.02199 l -0.391576,-0.196729 q -0.07388,-0.03712 -0.03676,-0.111 l 1.956146,-3.893591 q 0.03712,-0.07388 0.111001,-0.03676 l 0.391575,0.196728 q 0.07388,0.03712 0.03676,0.111 l -0.453449,1.215664 q -0.04825,0.09605 0.07374,0.111071 l 8.798153,1.200143 -6.181155,-6.482789 q -0.06639,-0.08887 -0.144266,0.0293 L 39.906275,75.3737 q -0.04451,0.07017 -0.111001,0.03676 l -0.391576,-0.196728 q -0.07388,-0.03712 -0.03676,-0.111 l 1.655486,-3.295145 q 0.04083,-0.08127 0.114712,-0.04415 l 0.391576,0.196728 q 0.07388,0.03712 0.03305,0.118389 l -0.512839,1.333875 q -0.02227,0.04433 0.01463,0.08138 l 7.848799,8.412476 q 0.03691,0.03705 0.01464,0.08138 l -0.207864,0.41374 q -0.02227,0.04433 -0.07402,0.03683 l -7.493299,-0.979475 5.180815,5.582334 q 0.02948,0.05182 0.01463,0.08138 l -0.189304,0.376799 q -0.02595,0.03323 -0.07402,0.03683 L 34.701373,86.19419 q -0.05175,-0.0075 -0.07402,0.03683 l -0.763967,1.170695 q -0.03341,0.06649 -0.107289,0.02938 l -0.391576,-0.196728 q -0.07388,-0.03712 -0.03305,-0.118389 z" />
        <path
           inkscape:connector-curvature="0"
           id="path868"
           style="font-style:normal;font-variant:normal;font-weight:normal;font-stretch:normal;font-size:16.93333244px;font-family:Sylfaen;-inkscape-font-specification:Sylfaen;letter-spacing:0px;fill:#ffffff;fill-opacity:1;stroke-width:0.26458332"
           d="m 43.72834,68.727369 q -0.06069,-0.05615 -0.0045,-0.116842 l 3.015217,-3.259204 q 0.05615,-0.06069 0.116842,-0.0045 l 0.321672,0.297592 q 0.06069,0.05615 0.0045,0.116842 L 46.3644,66.852029 q -0.05615,0.06069 0.0045,0.116842 l 3.010363,2.785005 q 0.03642,0.03369 0.05326,0.01548 l 3.694623,-3.993587 q -9.09e-4,-0.02337 -0.02519,-0.04583 l -3.010363,-2.785005 q -0.06069,-0.05615 -0.116842,0.0045 l -1.024026,0.899908 q -0.05615,0.06069 -0.116842,0.0045 L 48.51226,63.556341 q -0.06069,-0.05615 -0.0045,-0.116842 l 3.015217,-3.259204 q 0.05615,-0.06069 0.116842,-0.0045 l 0.321672,0.297591 q 0.06069,0.05615 0.0045,0.116842 l -0.879435,1.157578 q -0.05615,0.06069 0.0045,0.116842 l 7.149614,6.614387 q 0.06069,0.05615 0.116842,-0.0045 l 1.079721,-0.972286 q 0.05615,-0.06069 0.122911,0.0011 l 0.321672,0.297591 q 0.06069,0.05615 0.0045,0.116842 l -3.015218,3.259204 q -0.05615,0.06069 -0.116842,0.0045 l -0.321672,-0.297592 q -0.06676,-0.06176 -0.01061,-0.122457 l 0.82374,-1.085201 q 0.05615,-0.06069 -0.0045,-0.116842 l -3.471629,-3.211739 q -0.06069,-0.05615 -0.116842,0.0045 l -3.610399,3.902548 q -0.05615,0.06069 0.0045,0.116842 l 3.471629,3.21174 q 0.06069,0.05615 0.116842,-0.0045 l 1.017957,-0.905523 q 0.05615,-0.06069 0.122911,0.0011 l 0.321672,0.297592 q 0.06069,0.05615 0.0045,0.116842 l -3.01509,3.259104 q -0.05615,0.06069 -0.116842,0.0045 l -0.321672,-0.297591 q -0.06676,-0.06176 -0.01061,-0.122457 l 0.879889,-1.145894 q 0.05615,-0.06069 -0.0045,-0.116842 l -7.149613,-6.614387 q -0.06069,-0.05615 -0.116842,0.0045 L 44.1669,69.020331 q -0.05615,0.06069 -0.116842,0.0045 z" />
        <path
           inkscape:connector-curvature="0"
           id="path870"
           style="font-style:normal;font-variant:normal;font-weight:normal;font-stretch:normal;font-size:16.93333244px;font-family:Sylfaen;-inkscape-font-specification:Sylfaen;letter-spacing:0px;fill:#ffffff;fill-opacity:1;stroke-width:0.26458332"
           d="m 61.118537,53.107966 q 0.06753,-0.04771 0.115237,0.01983 l 1.531342,2.167775 q 0.05248,0.07429 -0.01506,0.121991 l -0.513243,0.36256 q -0.06753,0.04771 -0.105696,-0.0063 l -1.383645,-1.371149 q -0.03816,-0.05402 -0.105696,-0.0063 l -3.167247,2.23738 q -0.06753,0.04771 -0.01983,0.115238 l 2.41389,3.417115 q 0.04771,0.06753 0.115238,0.01983 l 1.9044,-1.345291 q 0.07429,-0.05248 0.03612,-0.106501 L 61.26751,57.517656 q -0.03816,-0.05403 0.02937,-0.101731 l 0.378178,-0.26715 q 0.06753,-0.04771 0.115238,0.01983 l 2.122887,3.005171 q 0.04771,0.06753 -0.01983,0.115237 l -0.378179,0.26715 q -0.06753,0.04771 -0.105696,-0.0063 L 62.4348,59.456711 q -0.04293,-0.06078 -0.11722,-0.0083 l -1.9044,1.345291 q -0.06753,0.04771 -0.01506,0.121991 l 2.638105,3.734515 q 0.04771,0.06753 0.115237,0.01983 l 3.356337,-2.370956 q 0.07428,-0.05248 0.03612,-0.106501 l -0.810801,-1.73532 q -0.03816,-0.05403 0.02937,-0.101731 l 0.513242,-0.362561 q 0.06753,-0.04771 0.115238,0.01983 l 1.517029,2.147515 q 0.04771,0.06753 -0.01983,0.115238 l -6.807218,4.808698 q -0.06753,0.0477 -0.115238,-0.01983 l -0.252838,-0.357919 q -0.05248,-0.07429 0.01506,-0.12199 l 1.098727,-0.938124 q 0.06753,-0.04771 0.01983,-0.115238 l -5.63877,-7.982302 q -0.05564,-0.02144 -0.09616,0.0072 l -1.256154,0.715269 q -0.06753,0.04771 -0.115238,-0.01983 L 54.48733,57.893567 q -0.04771,-0.06753 0.01983,-0.115237 z" />
        <path
           inkscape:connector-curvature="0"
           id="path872"
           style="font-style:normal;font-variant:normal;font-weight:normal;font-stretch:normal;font-size:16.93333244px;font-family:Sylfaen;-inkscape-font-specification:Sylfaen;letter-spacing:0px;fill:#ffffff;fill-opacity:1;stroke-width:0.26458332"
           d="m 69.48521,54.630587 q 0.03401,0.07537 0.0943,0.04816 1.070185,-0.482896 1.482762,-0.714417 1.056122,-0.594473 1.214199,-1.591043 0.08915,-0.566343 -0.196508,-1.19941 -1.0032,-2.223271 -3.836928,-0.944617 l -0.542629,0.244849 q -0.07537,0.03401 -0.04136,0.109372 z m -1.305598,-5.225383 q 2.09515,-0.945388 3.307063,-0.71213 1.421189,0.274891 2.009506,1.578707 0.676735,1.499766 -0.442615,2.939158 -0.343369,0.445209 -0.802177,0.815513 0.972305,0.02389 2.281922,1.056663 l 2.475854,1.948822 q 0.05735,0.04669 0.140254,0.0093 L 78.32677,56.65512 q 0.07537,-0.03401 0.112772,0.0489 l 0.180236,0.399435 q 0.03401,0.07537 -0.04136,0.109372 l -2.419221,1.091617 q -0.0829,0.03741 -0.140253,-0.0093 L 73.437669,56.11269 Q 71.575952,54.539864 70.061113,55.2234 l -0.180876,0.08162 q -0.07537,0.03401 -0.04816,0.0943 l 1.819362,4.032033 q 0.03061,0.06783 0.109372,0.04136 l 1.516494,-0.539147 q 0.0863,-0.02987 0.120309,0.04549 l 0.180236,0.399435 q 0.03401,0.07537 -0.04889,0.112773 l -4.303348,1.941786 q -0.07537,0.03401 -0.109372,-0.04136 l -0.180239,-0.39944 q -0.03741,-0.0829 0.03796,-0.116908 l 1.256942,-0.712302 q 0.07536,-0.03401 0.04136,-0.109372 l -4.005997,-8.87801 q -0.03401,-0.07536 -0.109371,-0.04136 l -1.369165,0.463597 q -0.07537,0.03401 -0.109372,-0.04136 L 64.498122,51.1571 q -0.03401,-0.07536 0.04136,-0.109372 z" />
        <path
           inkscape:connector-curvature="0"
           id="path874"
           style="font-style:normal;font-variant:normal;font-weight:normal;font-stretch:normal;font-size:16.93333244px;font-family:Sylfaen;-inkscape-font-specification:Sylfaen;letter-spacing:0px;fill:#ffffff;fill-opacity:1;stroke-width:0.26458332"
           d="m 84.640247,44.108144 q 0.08046,-0.01903 0.0995,0.06143 l 0.61098,2.58282 q 0.02094,0.08851 -0.05952,0.107542 l -0.611509,0.144655 q -0.08046,0.01903 -0.09569,-0.04534 l -0.771473,-1.788673 q -0.01523,-0.06437 -0.09569,-0.04534 l -3.773652,0.892679 q -0.08046,0.01903 -0.06143,0.09949 l 0.963103,4.07136 q 0.01903,0.08046 0.0995,0.06143 l 2.269019,-0.53675 q 0.08851,-0.02094 0.07328,-0.08531 L 83.13163,48.254406 q -0.01523,-0.06437 0.06523,-0.0834 l 0.450586,-0.106588 q 0.08046,-0.01903 0.0995,0.06143 l 0.846998,3.580544 q 0.01903,0.08046 -0.06143,0.0995 l -0.450586,0.106589 q -0.08046,0.01903 -0.09569,-0.04534 l -0.495916,-1.378058 q -0.01713,-0.07242 -0.105638,-0.05148 l -2.269019,0.53675 q -0.08046,0.01903 -0.05952,0.107541 l 1.052561,4.44953 q 0.01903,0.08046 0.0995,0.06143 l 3.998945,-0.945973 q 0.08851,-0.02094 0.07328,-0.08531 l -0.104075,-1.912564 q -0.01523,-0.06437 0.06524,-0.0834 l 0.611509,-0.144655 q 0.08046,-0.01903 0.09949,0.06143 l 0.60527,2.558681 q 0.01903,0.08046 -0.06143,0.0995 l -8.110536,1.918593 q -0.08046,0.01903 -0.0995,-0.06143 l -0.100878,-0.426447 q -0.02094,-0.08851 0.05952,-0.107542 l 1.369579,-0.459924 q 0.08046,-0.01903 0.06143,-0.09949 l -2.249778,-9.51057 q -0.0436,-0.04066 -0.09188,-0.02924 l -1.43239,0.1944 q -0.08046,0.01903 -0.0995,-0.06143 l -0.100878,-0.426446 q -0.01903,-0.08046 0.06143,-0.0995 z" />
        <path
           inkscape:connector-curvature="0"
           id="path876"
           style="font-style:normal;font-variant:normal;font-weight:normal;font-stretch:normal;font-size:16.93333244px;font-family:Sylfaen;-inkscape-font-specification:Sylfaen;letter-spacing:0px;fill:#ffffff;fill-opacity:1;stroke-width:0.26458332"
           d="m 101.4363,43.331336 q 0.0909,0.0019 0.0892,0.08454 l -0.0548,2.653536 q -0.002,0.09093 -0.0928,0.08905 l -0.61999,-0.0128 q -0.0909,-0.0019 -0.0896,-0.06801 l -0.29107,-1.924647 q 0.001,-0.06613 -0.0896,-0.06801 l -3.703381,-0.07646 q -0.08266,-0.0017 -0.08437,0.08096 l -0.09165,4.439092 q -0.0014,0.06613 0.0813,0.06784 l 2.231947,0.04608 q 0.08266,0.0017 0.08403,-0.06443 l 0.201926,-1.368649 q 0.0014,-0.06613 0.08403,-0.06442 l 0.454656,0.0094 q 0.09093,0.0019 0.08922,0.08454 l -0.07441,3.60418 q -0.0017,0.08267 -0.09264,0.08079 l -0.454655,-0.0094 q -0.08266,-0.0017 -0.0813,-0.06784 l -0.144923,-1.39235 q 0.0014,-0.06613 -0.0813,-0.06784 l -2.231946,-0.04608 q -0.08266,-0.0017 -0.08403,0.06442 l -0.09063,4.389494 q -0.0017,0.08266 0.08096,0.08437 l 1.435635,0.16196 q 0.08267,0.0017 0.08079,0.09264 l -0.009,0.438123 q -0.0017,0.08266 -0.08437,0.08096 l -4.521758,-0.09336 q -0.08267,-0.0017 -0.08096,-0.08437 l 0.009,-0.438123 q 0.0019,-0.09093 0.08454,-0.08922 l 1.441096,-0.102568 q 0.08267,0.0017 0.08437,-0.08096 l 0.20173,-9.770964 q -0.01551,-0.04994 -0.04857,-0.05062 l -0.03307,-6.82e-4 -1.435464,-0.170226 q -0.08266,-0.0017 -0.08096,-0.08437 l 0.009,-0.438123 q 0.0017,-0.08266 0.06784,-0.0813 z" />
        <path
           inkscape:connector-curvature="0"
           id="path878"
           style="font-style:normal;font-variant:normal;font-weight:normal;font-stretch:normal;font-size:16.93333244px;font-family:Sylfaen;-inkscape-font-specification:Sylfaen;letter-spacing:0px;fill:#ffffff;fill-opacity:1;stroke-width:0.26458332"
           d="m 106.58084,49.446437 q -0.0169,0.08094 0.0479,0.09445 1.14933,0.239841 1.61912,0.295646 1.20366,0.141377 1.91823,-0.571033 0.40554,-0.405262 0.54741,-1.085148 0.49826,-2.387693 -2.54503,-3.022765 l -0.58276,-0.12161 q -0.0809,-0.01689 -0.0978,0.06405 z m 2.02156,-4.992247 q 2.25009,0.469548 3.09229,1.371682 0.98683,1.059012 0.69463,2.459252 -0.33611,1.610681 -2.08839,2.114991 -0.53968,0.157663 -1.12856,0.18681 0.77181,0.591824 1.22221,2.197707 l 0.85363,3.032997 q 0.0189,0.07151 0.1079,0.09009 l 1.17896,0.381166 q 0.0809,0.01689 0.0624,0.105923 l -0.0895,0.428975 q -0.0169,0.08094 -0.0978,0.06405 l -2.59813,-0.542176 q -0.089,-0.01858 -0.1079,-0.09009 l -0.80127,-3.283908 q -0.57864,-2.367476 -2.20551,-2.70697 l -0.19425,-0.04054 q -0.0809,-0.01689 -0.0945,0.04786 l -0.90362,4.330223 q -0.0152,0.07284 0.064,0.09783 l 1.54318,0.457172 q 0.0874,0.02667 0.0705,0.107612 l -0.0895,0.428975 q -0.0169,0.08094 -0.10592,0.06236 l -4.62161,-0.964432 q -0.0809,-0.01689 -0.064,-0.09783 l 0.0895,-0.428976 q 0.0186,-0.08903 0.0995,-0.07214 l 1.43536,0.164388 q 0.0809,0.01689 0.0978,-0.06405 l 1.98967,-9.534584 q 0.0169,-0.08094 -0.064,-0.09783 l -1.37962,-0.431486 q -0.0809,-0.01689 -0.0641,-0.09783 l 0.0895,-0.428975 q 0.0169,-0.08094 0.0978,-0.06405 z" />
        <path
           inkscape:connector-curvature="0"
           id="path880"
           style="font-style:normal;font-variant:normal;font-weight:normal;font-stretch:normal;font-size:16.93333244px;font-family:Sylfaen;-inkscape-font-specification:Sylfaen;letter-spacing:0px;fill:#ffffff;fill-opacity:1;stroke-width:0.26458332"
           d="m 121.3901,48.292013 q 0.0774,0.02915 0.0482,0.106523 l -0.1545,0.410079 q -0.0292,0.07737 -0.10652,0.04822 l -1.39585,-0.375674 q -0.0774,-0.02915 -0.10653,0.04822 l -3.43386,9.114586 q -0.0291,0.07737 0.0482,0.106523 l 1.29966,0.631006 q 0.0774,0.02915 0.0453,0.114261 l -0.15449,0.410079 q -0.0292,0.07737 -0.10653,0.04822 l -4.26327,-1.60616 q -0.0774,-0.02915 -0.0482,-0.106523 l 0.1545,-0.410079 q 0.0321,-0.08511 0.10944,-0.05596 l 1.39293,0.383411 q 0.0774,0.02915 0.10653,-0.04822 l 3.43386,-9.114586 q 0.0292,-0.07737 -0.0482,-0.106523 l -1.29675,-0.638744 q -0.0774,-0.02915 -0.0482,-0.106523 l 0.15449,-0.410079 q 0.0291,-0.07737 0.10653,-0.04822 z" />
        <path
           inkscape:connector-curvature="0"
           id="path882"
           style="font-style:normal;font-variant:normal;font-weight:normal;font-stretch:normal;font-size:16.93333244px;font-family:Sylfaen;-inkscape-font-specification:Sylfaen;letter-spacing:0px;fill:#ffffff;fill-opacity:1;stroke-width:0.26458332"
           d="m 131.343,53.382551 q 0.0723,0.04006 0.0323,0.112391 l -1.28599,2.321737 q -0.0441,0.07956 -0.1164,0.0395 l -0.5497,-0.304473 q -0.0723,-0.04006 -0.0403,-0.09792 l 0.63289,-1.842271 q 0.032,-0.05786 -0.0403,-0.09792 l -3.39219,-1.878919 q -0.0723,-0.04006 -0.11239,0.03227 l -2.02715,3.659811 q -0.0401,0.07233 0.0323,0.11239 l 2.03965,1.129755 q 0.0796,0.04407 0.11161,-0.01379 l 0.80969,-1.120525 q 0.032,-0.05786 0.10438,-0.0178 l 0.40504,0.224348 q 0.0723,0.04006 0.0323,0.112391 l -1.78277,3.218608 q -0.0401,0.07233 -0.11239,0.03227 l -0.40504,-0.224349 q -0.0723,-0.04006 -0.0403,-0.09793 l 0.56044,-1.353102 q 0.0361,-0.06509 -0.0435,-0.109164 l -2.03965,-1.129754 q -0.0723,-0.04006 -0.1164,0.0395 l -2.21544,3.999754 q -0.0401,0.07233 0.0323,0.11239 l 3.59472,1.991093 q 0.0796,0.04407 0.11161,-0.01379 l 1.20996,-1.48483 q 0.032,-0.05786 0.10438,-0.0178 l 0.5497,0.304473 q 0.0723,0.04006 0.0323,0.11239 l -1.27398,2.300039 q -0.0401,0.07233 -0.11239,0.03227 l -7.29069,-4.038272 q -0.0723,-0.04006 -0.0323,-0.11239 l 0.21233,-0.38334 q 0.0441,-0.07956 0.11639,-0.0395 l 1.32262,0.581357 q 0.0723,0.04006 0.11239,-0.03227 l 4.73535,-8.549201 q -0.005,-0.05942 -0.0483,-0.08346 l -1.19041,-0.820041 q -0.0723,-0.04006 -0.0323,-0.112391 l 0.21233,-0.38334 q 0.0401,-0.07233 0.11239,-0.03227 z" />
        <path
           inkscape:connector-curvature="0"
           id="path884"
           style="font-style:normal;font-variant:normal;font-weight:normal;font-stretch:normal;font-size:16.93333244px;font-family:Sylfaen;-inkscape-font-specification:Sylfaen;letter-spacing:0px;fill:#ffffff;fill-opacity:1;stroke-width:0.26458332"
           d="m 134.50958,55.444685 q 0.0539,-0.06266 0.1166,-0.0087 l 2.26192,1.947551 q 0.0259,0.03324 0.0285,0.06822 l -0.65992,10.397128 4.86078,-5.645388 q 0.0539,-0.06266 -0.002,-0.111211 l -0.8598,-0.914878 q -0.0627,-0.05395 -0.003,-0.122871 l 0.32908,-0.382207 q 0.054,-0.06266 0.11661,-0.0087 l 2.66918,2.298218 q 0.0627,0.05395 0.009,0.116606 l -0.32909,0.382207 q -0.0593,0.06892 -0.122,0.01497 l -1.05123,-0.730561 q -0.0627,-0.05395 -0.11661,0.0087 l -6.88386,7.995021 q -0.0539,0.06266 -0.12914,-0.0021 l -0.24436,-0.210401 q -0.0259,-0.03324 -0.0303,-0.09154 l 0.77401,-12.088271 -5.66462,6.578976 q -0.0593,0.06892 -0.009,0.112082 l 0.85353,0.909482 q 0.0627,0.05395 0.009,0.116606 l -0.33448,0.388473 q -0.0539,0.06266 -0.11661,0.0087 l -2.66918,-2.298218 q -0.0689,-0.05934 -0.015,-0.122001 l 0.33449,-0.388473 q 0.054,-0.06266 0.12287,-0.0033 l 1.0575,0.735955 q 0.0689,0.05934 0.12826,-0.0096 l 6.26346,-7.274467 q 0.054,-0.06266 -0.015,-0.122001 l -1.00392,-1.03896 q -0.0626,-0.05395 -0.003,-0.122871 z" />
        <path
           inkscape:connector-curvature="0"
           id="path886"
           style="font-style:normal;font-variant:normal;font-weight:normal;font-stretch:normal;font-size:16.93333244px;font-family:Sylfaen;-inkscape-font-specification:Sylfaen;letter-spacing:0px;fill:#ffffff;fill-opacity:1;stroke-width:0.26458332"
           d="m 139.11978,74.345544 q -0.0666,0.04898 -0.0176,0.115594 l 0.71028,0.965844 q 1.51362,2.058247 2.92545,2.456855 1.59502,0.438368 3.59331,-1.031166 4.37628,-3.21828 1.56947,-7.035029 l -0.87193,-1.185656 q -0.049,-0.06661 -0.11559,-0.01763 z m 6.88989,-6.903907 q 0.0666,-0.04899 0.0176,-0.115595 l -0.74576,-1.237388 q -0.049,-0.06661 0.0243,-0.120493 l 0.40632,-0.298805 q 0.0666,-0.04898 0.11559,0.01763 l 2.69905,3.670206 q 1.73405,2.357992 1.63152,4.465518 -0.10761,2.296003 -2.41231,3.990866 -4.63605,3.409319 -8.54991,-1.912814 l -2.54719,-3.463716 q -0.049,-0.06661 0.0176,-0.115594 l 0.41298,-0.303704 q 0.0666,-0.04898 0.1156,0.01763 l 0.9589,1.080638 q 0.049,0.06661 0.12226,0.01273 z" />
        <path
           inkscape:connector-curvature="0"
           id="path888"
           style="font-style:normal;font-variant:normal;font-weight:normal;font-stretch:normal;font-size:16.93333244px;font-family:Sylfaen;-inkscape-font-specification:Sylfaen;letter-spacing:0px;fill:#ffffff;fill-opacity:1;stroke-width:0.26458332"
           d="m 153.75099,83.866536 q -0.0358,-0.07453 0.0238,-0.103168 l 1.5675,-1.128843 q 0.0447,-0.02148 0.0423,-0.102873 -0.0243,-0.795486 -0.3894,-1.555723 -0.37942,-0.790049 -1.06167,-1.141148 -0.75562,-0.389249 -1.52331,-0.02057 -0.73787,0.354358 -0.99086,1.145426 -0.16746,0.529863 -0.15027,1.539728 l 0.0214,1.209631 q 0.0217,1.420429 -0.27566,2.214488 -0.37459,0.996226 -1.40315,1.49018 -1.53538,0.737353 -2.95059,-0.03222 -1.26493,-0.685818 -2.02734,-2.27337 -0.39015,-0.812409 -0.65992,-1.985318 -0.0761,-0.330346 -0.0973,-0.622837 -0.006,-0.08885 0.0387,-0.110327 l 2.30306,-1.106028 q 0.0745,-0.03579 0.11033,0.03874 l 0.30067,0.626077 q 0.0134,0.08527 -0.0238,0.103168 l -1.57496,1.132422 q -0.0188,0.01819 -0.023,0.04771 l -0.0268,0.05874 q -0.0106,0.665495 0.44756,1.619517 0.451,0.939115 1.19499,1.361462 0.84657,0.483151 1.74842,0.05005 1.25215,-0.601336 1.23297,-2.646709 l -0.0137,-1.231696 q -0.0155,-1.350066 0.26345,-2.144419 0.36802,-1.048104 1.3295,-1.509844 0.96147,-0.46174 1.98957,-0.230868 0.99859,0.226704 1.75159,1.011612 0.48014,0.503199 0.7987,1.166543 0.42595,0.886942 0.65723,1.922406 0.0621,0.282048 0.11581,0.623132 0.0209,0.08169 -0.0387,0.110327 l -2.31052,1.109608 q -0.0745,0.03579 -0.11033,-0.03874 z" />
      </g>
      <circle
         r="52.388405"
         transform="rotate(-162.51205)"
         cy="-95.12999"
         cx="-187.24126"
         id="path924-3-6"
         style="opacity:1;fill:none;fill-opacity:1;stroke:#ffffff;stroke-width:0.8023653;stroke-linecap:round;stroke-linejoin:round;stroke-miterlimit:4;stroke-dasharray:none;stroke-opacity:1" />
      <rect
         style="display:inline;opacity:1;fill:url(#linearGradient1003);fill-opacity:1;stroke:none;stroke-width:0.72515017;stroke-linecap:round;stroke-linejoin:round;stroke-miterlimit:4;stroke-dasharray:none;stroke-opacity:1"
         id="rect1049"
         width="45.96553"
         height="56.491493"
         x="138.53773"
         y="-177.49599"
         transform="rotate(90)"
         inkscape:transform-center-y="-13.02147"
         inkscape:transform-center-x="-1.1444092e-05" />
      <path
         style="display:inline;opacity:1;fill:#ffffff;fill-opacity:1;stroke:none;stroke-width:0.62908238;stroke-linecap:round;stroke-linejoin:round;stroke-miterlimit:4;stroke-dasharray:none;stroke-opacity:1"
         clip-path="none"
         d="m 149.25021,105.3733 -17.38446,18.91357 -17.38499,18.91409 h 34.76945 34.76946 l -17.38498,-18.91409 z m -6.04769,18.22576 h 11.90625 v 11.90625 h -11.90625 z"
         id="path1051"
         inkscape:connector-curvature="0" />
      <rect
         style="display:inline;opacity:1;fill:#ffffff;fill-opacity:1;stroke:none;stroke-width:0.79374999;stroke-linecap:round;stroke-linejoin:round;stroke-miterlimit:4;stroke-dasharray:none;stroke-opacity:1"
         id="rect1053"
         width="1.5119048"
         height="13.79613"
         x="148.49426"
         y="122.84314" />
      <rect
         style="display:inline;opacity:1;fill:#ffffff;fill-opacity:1;stroke:none;stroke-width:0.79374999;stroke-linecap:round;stroke-linejoin:round;stroke-miterlimit:4;stroke-dasharray:none;stroke-opacity:1"
         id="rect1055"
         width="1.5119048"
         height="13.796131"
         x="128.89076"
         y="-156.14828"
         transform="rotate(90)" />
      <rect
         style="display:inline;opacity:1;fill:#ffffff;fill-opacity:1;stroke:none;stroke-width:0.84309745;stroke-linecap:round;stroke-linejoin:round;stroke-miterlimit:4;stroke-dasharray:none;stroke-opacity:1"
         id="rect1057"
         width="6.4255953"
         height="24.946428"
         x="165.12521"
         y="110.36993" />
      <text
         xml:space="preserve"
         style="font-style:normal;font-variant:normal;font-weight:normal;font-stretch:normal;font-size:35.93130875px;line-height:1.25;font-family:Gabriola;-inkscape-font-specification:Gabriola;letter-spacing:4.49141359px;word-spacing:0px;display:inline;fill:#ffffff;fill-opacity:1;stroke:#002855;stroke-width:1.32291663;stroke-miterlimit:4;stroke-dasharray:none;stroke-opacity:1"
         x="103.58037"
         y="168.50418"
         id="text1122"><tspan
           sodipodi:role="line"
           id="tspan1120"
           x="103.58037"
           y="168.50418"
           style="font-style:normal;font-variant:normal;font-weight:normal;font-stretch:normal;font-family:Gabriola;-inkscape-font-specification:Gabriola;fill:#ffffff;fill-opacity:1;stroke:#002855;stroke-width:1.32291663;stroke-miterlimit:4;stroke-dasharray:none;stroke-opacity:1">HOME</tspan></text>
      <text
         id="text1068"
         y="168.50418"
         x="103.58037"
         style="font-style:normal;font-variant:normal;font-weight:normal;font-stretch:normal;font-size:35.93130875px;line-height:1.25;font-family:Gabriola;-inkscape-font-specification:Gabriola;letter-spacing:4.49141359px;word-spacing:0px;fill:#ffffff;fill-opacity:1;stroke:none;stroke-width:0.89828277;stroke-opacity:1"
         xml:space="preserve"><tspan
           style="font-style:normal;font-variant:normal;font-weight:normal;font-stretch:normal;font-family:Gabriola;-inkscape-font-specification:Gabriola;fill:#ffffff;fill-opacity:1;stroke:none;stroke-width:0.89828277;stroke-opacity:1"
           y="168.50418"
           x="103.58037"
           id="tspan1066"
           sodipodi:role="line">HOME</tspan></text>
    </g>
  </g>
</svg>
